<svg id="Layer_1" data-name="Layer 1" xmlns="http://www.w3.org/2000/svg" viewBox="0 0 84 54"><defs><style>.cls-1{fill:#fff;}</style></defs><path class="cls-1" d="M12,37.15a4.18,4.18,0,0,0-.94.13L48.19,70.53a3.16,3.16,0,0,0,3.62,0L88.94,37.28a4.18,4.18,0,0,0-.94-.13ZM8.16,40.09A3.78,3.78,0,0,0,8,41.15v46a4,4,0,0,0,.16,1L34.88,64,8.16,40.09Zm83.68,0L65.12,64,91.84,88.19a4,4,0,0,0,.16-1v-46a3.78,3.78,0,0,0-.16-1.06Zm-54,26.6L11,91a3.85,3.85,0,0,0,1,.15H88A3.85,3.85,0,0,0,89,91L62.12,66.69,54.5,73.5a6.8,6.8,0,0,1-9,0Z" transform="translate(-8 -37.15)"/></svg>