<svg id="Layer_1" data-name="Layer 1" xmlns="http://www.w3.org/2000/svg" viewBox="0 0 82.01 82.01"><defs><style>.cls-1{fill:#fff;}</style></defs><g id="QLb6mN.tif"><path class="cls-1" d="M90.67,22.86q0,40.64,0,81.26-12.33,0-24.65,0c-.59,0-.77-.13-.77-.74q0-15.09,0-30.18c0-.65.21-.79.82-.78,3,0,6.08,0,9.12,0,.5,0,.73-.08.8-.66.48-3.84,1-7.67,1.53-11.49.08-.6-.05-.79-.68-.78-3.6,0-7.2,0-10.81,0-.47,0-.79,0-.78-.66,0-2.7,0-5.39,0-8.09A4.56,4.56,0,0,1,70.2,46c2.29,0,4.58,0,6.88,0,.52,0,.74-.09.74-.68,0-3.42,0-6.83,0-10.25,0-.56-.16-.73-.72-.72-3.26,0-6.51,0-9.77,0a21.18,21.18,0,0,0-3.18.24A14.23,14.23,0,0,0,52.4,47.83c-.09,3.58-.07,7.15,0,10.73,0,.85-.26,1-1,1-3,0-6,0-9,0-.54,0-.73.12-.73.7q0,5.76,0,11.52c0,.56.14.72.71.71,3,0,6.08,0,9.12,0,.7,0,.89.17.89.88q0,15,0,29.94c0,.77-.25.89-.94.89q-20.89,0-41.78,0c-.81,0-1-.2-1-1q0-40.5,0-81,40.64,0,81.26,0C90.54,22.13,90.67,22.26,90.67,22.86Z" transform="translate(-8.66 -22.13)"/></g></svg>