<?xml version="1.0" encoding="utf-8"?>
<!-- Generator: Adobe Illustrator 25.2.1, SVG Export Plug-In . SVG Version: 6.00 Build 0)  -->
<svg version="1.1" id="Layer_1" xmlns="http://www.w3.org/2000/svg" xmlns:xlink="http://www.w3.org/1999/xlink" x="0px" y="0px"
	 viewBox="0 0 841.9 205.5" style="enable-background:new 0 0 841.9 205.5;" xml:space="preserve">
<style type="text/css">
	.st0{fill:#CC0000;}
	.st1{enable-background:new    ;}
	.st2{fill:#FFFFFF;}
</style>
<g id="Button_-_Shape">
	<path class="st0" d="M56.3-0.3h729.3c31,0,56.3,25.3,56.3,56.3v92.9c0,31-25.3,56.3-56.3,56.3H56.3c-31,0-56.3-25.3-56.3-56.3V56
		C0,25,25.3-0.3,56.3-0.3z"/>
</g>
<g class="st1">
	<path class="st2" d="M88.7,83v14.9h23.7v7.9H88.7v18.9h-9V75.4h36V83H88.7z"/>
	<path class="st2" d="M149.5,90.6c2.8,2.5,4.5,6.8,4.5,12.1v22h-8.4v-4.5c-1.1,1.7-2.5,2.8-4.5,3.7c-2,0.8-4.5,1.4-7.3,1.4
		s-5.3-0.6-7.3-1.4c-2.3-0.8-3.7-2.3-4.8-3.9c-1.1-1.7-1.7-3.7-1.7-5.9c0-3.4,1.1-6.2,3.7-8.2c2.5-2,6.5-3.1,11.8-3.1h9.9v-0.6
		c0-2.5-0.8-4.8-2.3-6.2c-1.7-1.4-3.9-2.3-7-2.3c-2.3,0-4.2,0.3-6.2,1.1c-2,0.8-3.7,1.7-5.1,2.8l-3.4-6.5c2-1.4,4.2-2.5,7-3.4
		s5.6-1.1,8.7-1.1C142.2,86.7,146.4,87.8,149.5,90.6z M141.3,117.1c1.7-1.1,2.8-2.5,3.7-4.2v-4.2h-9c-5.1,0-7.6,1.7-7.6,5.1
		c0,1.7,0.6,2.8,2,3.9c1.1,0.8,3.1,1.4,5.3,1.4C137.7,118.8,139.7,118.2,141.3,117.1z"/>
	<path class="st2" d="M172.3,122.7c-3.1-1.7-5.6-3.9-7.3-6.8c-1.7-2.8-2.5-6.2-2.5-9.9c0-3.7,0.8-7,2.5-9.9c1.7-2.8,4.2-5.1,7.3-6.8
		c3.1-1.7,6.5-2.5,10.4-2.5c3.7,0,7,0.8,9.9,2.3s4.8,3.7,6.2,6.5l-6.8,3.9c-1.1-1.7-2.5-3.1-3.9-3.9c-1.7-0.8-3.4-1.4-5.3-1.4
		c-3.4,0-5.9,1.1-8.2,3.1c-2.3,2.3-3.1,5.1-3.1,8.4c0,3.4,1.1,6.5,3.1,8.4c2.3,2.3,4.8,3.1,8.2,3.1c2,0,3.7-0.6,5.3-1.4
		s3.1-2.3,3.9-3.9l6.8,3.9c-1.4,2.8-3.7,5.1-6.5,6.5s-5.9,2.3-9.6,2.3C178.8,125.3,175.4,124.4,172.3,122.7z"/>
	<path class="st2" d="M241,108.7h-29.6c0.6,2.8,2,5.1,3.9,6.5c2.3,1.7,4.8,2.5,8.2,2.5c4.2,0,7.6-1.4,10.1-4.2l4.8,5.3
		c-1.7,2-3.9,3.7-6.5,4.5c-2.5,1.1-5.3,1.4-8.7,1.4c-4.2,0-7.9-0.8-11-2.5s-5.6-3.9-7.3-6.8c-1.7-2.8-2.5-6.2-2.5-9.9
		c0-3.7,0.8-7,2.5-9.9c1.7-2.8,3.9-5.3,7-6.8c3.1-1.7,6.2-2.5,10.1-2.5c3.7,0,7,0.8,9.9,2.5s5.1,3.9,6.8,6.8
		c1.7,2.8,2.5,6.2,2.5,10.1C241.3,106.7,241,107.5,241,108.7z M215.1,96.3c-2,1.7-3.1,3.9-3.7,6.8h21.4c-0.3-2.8-1.4-5.1-3.4-6.5
		c-2-1.7-4.2-2.5-7-2.5C219.3,93.7,217.1,94.6,215.1,96.3z"/>
	<path class="st2" d="M280.2,89c2.8,1.7,5.1,3.9,6.8,6.8c1.7,2.8,2.5,6.2,2.5,10.1c0,3.7-0.8,7-2.5,10.1c-1.7,2.8-3.9,5.1-6.8,6.8
		c-2.8,1.7-6.2,2.3-9.9,2.3c-2.5,0-5.1-0.6-7-1.4c-2.3-0.8-3.9-2.3-5.3-3.9v4.8h-8.4V72.5h8.7v19.1c1.4-1.7,3.4-2.8,5.3-3.7
		s4.2-1.4,6.8-1.4C274.3,86.7,277.3,87.6,280.2,89z M277.3,114.3c2-2.3,3.1-5.1,3.1-8.4c0-3.4-1.1-6.5-3.1-8.4
		c-2-2.3-4.8-3.1-7.9-3.1c-2.3,0-3.9,0.6-5.6,1.4s-3.1,2.3-3.9,4.2c-1.1,1.7-1.4,3.9-1.4,6.2c0,2.3,0.6,4.5,1.4,6.2
		c1.1,1.7,2.3,3.1,3.9,4.2c1.7,0.8,3.7,1.4,5.6,1.4C272.8,117.7,275.4,116.6,277.3,114.3z"/>
	<path class="st2" d="M304.7,122.7c-3.1-1.7-5.3-3.9-7-6.8c-1.7-2.8-2.5-6.2-2.5-9.9c0-3.7,0.8-7,2.5-9.9c1.7-2.8,4.2-5.1,7-6.8
		c3.1-1.7,6.5-2.5,10.1-2.5c3.9,0,7.3,0.8,10.4,2.5s5.3,3.9,7,6.8c1.7,2.8,2.5,6.2,2.5,9.9c0,3.7-0.8,7-2.5,9.9
		c-1.7,2.8-4.2,5.3-7,6.8c-3.1,1.7-6.5,2.5-10.4,2.5C311.1,125.3,307.5,124.4,304.7,122.7z M323,114.3c2.3-2.3,3.1-5.1,3.1-8.4
		c0-3.4-1.1-6.5-3.1-8.4s-4.8-3.1-8.2-3.1c-3.1,0-5.9,1.1-7.9,3.1s-3.1,5.1-3.1,8.4c0,3.4,1.1,6.5,3.1,8.4c2,2.3,4.8,3.4,7.9,3.4
		C318.2,117.7,320.7,116.6,323,114.3z"/>
	<path class="st2" d="M350,122.7c-3.1-1.7-5.3-3.9-7-6.8c-1.7-2.8-2.5-6.2-2.5-9.9c0-3.7,0.8-7,2.5-9.9c1.7-2.8,4.2-5.1,7-6.8
		c3.1-1.7,6.5-2.5,10.1-2.5c3.9,0,7.3,0.8,10.4,2.5s5.3,3.9,7,6.8c1.7,2.8,2.5,6.2,2.5,9.9c0,3.7-0.8,7-2.5,9.9
		c-1.7,2.8-4.2,5.3-7,6.8c-3.1,1.7-6.5,2.5-10.4,2.5C356.5,125.3,353.1,124.4,350,122.7z M368.3,114.3c2.3-2.3,3.1-5.1,3.1-8.4
		c0-3.4-1.1-6.5-3.1-8.4s-4.8-3.1-8.2-3.1c-3.1,0-5.9,1.1-7.9,3.1s-3.1,5.1-3.1,8.4c0,3.4,1.1,6.5,3.1,8.4c2,2.3,4.8,3.4,7.9,3.4
		C363.5,117.7,366,116.6,368.3,114.3z"/>
	<path class="st2" d="M404.1,108.7l-6.5,6.2v9.9h-8.7V72.7h8.7v31.5l18.3-16.9h10.7l-15.8,15.8l17.2,22h-10.7L404.1,108.7z"/>
	<path class="st2" d="M485.1,77.4c3.1,1.4,5.6,3.4,7.3,6.2c1.7,2.8,2.5,5.6,2.5,9.3c0,3.7-0.8,6.8-2.5,9.3s-4.2,4.8-7.3,6.2
		c-3.1,1.4-6.8,2.3-11.3,2.3h-11v14.1h-9V75.5h20.3C478.4,75.4,482.1,76,485.1,77.4z M482.6,100.2c2-1.7,3.1-4.2,3.1-7.3
		c0-3.1-1.1-5.6-3.1-7.3s-5.1-2.5-9-2.5h-10.7v19.7h10.7C477.5,102.8,480.6,101.9,482.6,100.2z"/>
	<path class="st2" d="M529.9,90.6c2.8,2.5,4.5,6.8,4.5,12.1v22H526v-4.5c-1.1,1.7-2.5,2.8-4.5,3.7c-2,0.8-4.5,1.4-7.3,1.4
		s-5.3-0.6-7.3-1.4c-2.3-0.8-3.7-2.3-4.8-3.9c-1.1-1.7-1.7-3.7-1.7-5.9c0-3.4,1.1-6.2,3.7-8.2c2.5-2,6.5-3.1,11.8-3.1h9.9v-0.6
		c0-2.5-0.8-4.8-2.3-6.2c-1.7-1.4-3.9-2.3-7-2.3c-2.3,0-4.2,0.3-6.2,1.1c-2,0.8-3.7,1.7-5.1,2.8l-3.4-6.5c2-1.4,4.2-2.5,7-3.4
		c2.8-0.8,5.6-1.1,8.7-1.1C522.9,86.7,527.1,87.8,529.9,90.6z M522,117.1c1.7-1.1,2.8-2.5,3.7-4.2v-4.2h-9c-5.1,0-7.6,1.7-7.6,5.1
		c0,1.7,0.6,2.8,2,3.9c1.1,0.8,3.1,1.4,5.3,1.4C518.4,118.8,520.3,118.2,522,117.1z"/>
	<path class="st2" d="M583.4,87v31.8c0,13.2-6.8,20-20.3,20c-3.7,0-7-0.6-10.1-1.4c-3.4-0.8-5.9-2.3-8.2-3.9l3.9-6.5
		c1.7,1.4,3.7,2.5,6.2,3.4s5.1,1.1,7.6,1.1c4.2,0,7-0.8,9-2.8s2.8-4.8,2.8-8.4v-2c-1.4,1.7-3.4,2.8-5.3,3.7c-2.3,0.8-4.5,1.4-7,1.4
		c-3.7,0-6.8-0.8-9.6-2.3c-2.8-1.4-5.1-3.7-6.8-6.5s-2.5-5.9-2.5-9.6s0.8-6.8,2.5-9.6c1.7-2.8,3.9-4.8,6.8-6.5
		c2.8-1.4,6.2-2.3,9.6-2.3c2.8,0,5.1,0.6,7.3,1.4c2.3,0.8,4.2,2.3,5.6,4.2v-5.1h8.4L583.4,87L583.4,87z M571.6,112.6
		c2.3-2,3.1-4.5,3.1-7.9c0-3.1-1.1-5.6-3.1-7.6s-4.8-2.8-8.2-2.8s-6.2,0.8-8.2,2.8s-3.1,4.5-3.1,7.6s1.1,5.9,3.1,7.9
		c2.3,2,4.8,3.1,8.2,3.1C566.5,115.4,569.3,114.6,571.6,112.6z"/>
	<path class="st2" d="M630.2,108.7h-29.6c0.6,2.8,2,5.1,3.9,6.5c2.3,1.7,4.8,2.5,8.2,2.5c4.2,0,7.6-1.4,10.1-4.2l4.8,5.3
		c-1.7,2-3.9,3.7-6.5,4.5c-2.5,1.1-5.3,1.4-8.7,1.4c-4.2,0-7.9-0.8-11-2.5s-5.6-3.9-7.3-6.8s-2.5-6.2-2.5-9.9c0-3.7,0.8-7,2.5-9.9
		c1.7-2.8,3.9-5.3,7-6.8c3.1-1.7,6.2-2.5,10.1-2.5c3.7,0,7,0.8,9.9,2.5c2.8,1.7,5.1,3.9,6.8,6.8c1.7,2.8,2.5,6.2,2.5,10.1
		C630.2,106.7,630.2,107.5,630.2,108.7z M604,96.3c-2,1.7-3.1,3.9-3.7,6.8h21.4c-0.3-2.8-1.4-5.1-3.4-6.5c-2-1.7-4.2-2.5-7-2.5
		C608.5,93.7,605.9,94.6,604,96.3z"/>
</g>
<g id="Arrow">
	<polygon class="st2" points="728.7,153.4 718.6,143.3 759.4,102.8 718.6,62.2 728.7,52.1 779.1,102.8 	"/>
</g>
</svg>
