<svg id="Layer_1" data-name="Layer 1" xmlns="http://www.w3.org/2000/svg" viewBox="0 0 839.82 558.26"><defs><style>.cls-1{fill:#fff;}</style></defs><path class="cls-1" d="M840.73,507c-1,5.07-1.54,10.26-3,15.2a53.15,53.15,0,0,1-15.31,24.34c-5.59,5.23-12.76,7.44-19.91,9a114.35,114.35,0,0,1-22.08,2.87,355.56,355.56,0,0,1-35.61-.94c-12-.95-23.85-2.78-35.71-4.62-16.39-2.55-32.74-5.37-49.07-8.29-8.82-1.59-17.53-3.78-26.35-5.44q-14.85-2.8-29.81-5.11T574,529.88c-8.42-1-16.88-1.85-25.34-2.57-10-.85-20-1.62-30-2.22-9-.53-18-1-27-1.15-12.85-.27-25.72-.65-38.56-.36-19.75.44-39.48,1.31-59.22,2.19-10.09.46-20.18,1.2-30.24,2.07q-15.81,1.35-31.57,3.23c-14.15,1.68-28.29,3.4-42.39,5.45-15.53,2.26-31,4.91-46.52,7.39-14.8,2.36-29.57,4.89-44.41,7-13.72,2-27.49,3.6-41.27,5.1-7.89.85-15.83,1.27-23.76,1.61-6.16.26-12.35.24-18.52.06-14.27-.43-28.07-3.51-41.57-8-11.88-4-23.1-9.23-32.8-17.27C20.28,515.3,6.64,494.12,2.21,467.3c-3.81-23.06.94-44.42,11.36-64.91a277.89,277.89,0,0,1,33.24-51.12c6.42-7.78,13.92-14.68,21-21.92q24.52-25.07,49.12-50.08c6.12-6.26,12.67-12.2,18.13-19,13.33-16.63,16.53-35.17,7.87-55-3.07-7-7.4-13.44-11.25-20.09-8.38-14.48-13.89-29.85-13.39-46.79.44-15,4.19-29.07,13.92-40.91A81.8,81.8,0,0,1,162.14,75c5.09-2.31,10.36-4.25,15.61-6.18,16.46-6,32-13.89,45.33-25.3a119.52,119.52,0,0,1,34-20c5.48-2.18,11.56-3.05,17.46-3.93,7-1.05,14.18-1.46,21.28-2.15,5.74-.55,11.5-1,17.22-1.66,8.42-1,16.35-3.82,24.27-6.67,7.61-2.74,15.15-5.69,22.88-8,3.2-1,6.82-.71,10.24-.75,2.06,0,3.45,1.18,4.39,3.17,2.52,5.38,3,11.11,3.26,16.89.44,11.39,1,22.79,1,34.18,0,7.47-2.78,14.43-6.34,21-.49.91-1.79,1.37-3.3,2.47,0-3.55.05-6.33,0-9.11-.09-4.18-.25-8.35-.39-12.52a1.91,1.91,0,0,0,0-.72c-1-2.09-1.71-4.42-3.12-6.19-3.29-4.14-6.9-8-10.43-12-.94-1-1.21-1.85-.23-3.1,2-2.57,3.85-5.29,6.06-8,.44,6.53,3.59,12,6.36,17.58.3.59,1.29.84,2.11,1.34,2.52-3.56,4.18-7.12,3.2-11.47Q371,25.17,369.07,16.5a37.38,37.38,0,0,1-1-4.88c-.15-1.63-1-1.79-2.36-1.95a12.17,12.17,0,0,0-11.45,4.55c-2.25,2.66-5.39,4.61-6.06,8.43-.08.42-.89.85-1.44,1-5.92,2-11.77,2.73-18.06,1-3.3-.92-7.16-.19-10.72.22-4.3.5-8.56,1.45-12.83,2.2l.13.89c3.59-.23,7.18-.43,10.77-.71,1.54-.12,2.77,0,3.55,1.67.25.54,1.43.88,2.21.92,5.57.3,11.15.5,16.8,1.16-3.33,1.27-6.59,2.79-10,3.73-2.87.8-4.64,2.29-5.29,5.13-.55,2.41-1.75,3.79-4.48,3.38-.92-.14-1.94.43-2.86.29-4.29-.65-7,1.46-9.46,4.67a6.57,6.57,0,0,0-1.5,5.91,6.17,6.17,0,0,1-5.23,7.41,51.47,51.47,0,0,0-17.41,6A29.38,29.38,0,0,1,261.5,70.9c-6.95-1.35-13.91-2.43-21-1.74-1.5.15-3,.39-4.57.6V73l13,.74c-1,3.66.15,5.84,4.27,6.48,5.82.92,10.3,4.14,14.89,7.33a129.12,129.12,0,0,1,21.17,18.16c.47.52,1,1,1.72,1.6l4-5.58c1.8,2.29,3.58,4.18,4.95,6.33,2.62,4.13,4.52,4.58,8.7,1.47-2.52-4.89-5.14-9.8-7.58-14.79-1.81-3.71-3.21-7.63-5.18-11.26-.95-1.76-2.14-3.23-2.17-5.41,0-1.77.55-2.63,2.22-3.13,3.52-1.05,7-2.3,10.52-3.37,2.12-.64,3.64-1.47,2.17-4.14,10.1-1.88,18.09-7.12,25.06-14.19,1.71-1.74,3.2-3.34,2.12-6a6.52,6.52,0,0,1,0-2.17c2.23,0,4.38-.06,6.51,0,3.69.12,7.4.1,11,.55,5.27.64,11.35,5.18,10.95,11.46,0,.75.75,1.52,1.09,2.31s.68,1.78,1,2.67l-.51.31-5.81-4L342.12,72.69c-2.13,1.71-4.28,3.38-6.34,5.17a2.8,2.8,0,0,0-1,1.93c1.41,13.66,4,27.1,12.31,38.38,3.82,5.16,9,9.33,13.74,13.78a14.83,14.83,0,0,0,4.79,2.69,78.56,78.56,0,0,1,18.75,10.62,7.13,7.13,0,0,1,2.83,7.63c-.79,2.61-3.2,4.4-6.47,4.47a12.35,12.35,0,0,1-4.94-.64c-11.7-4.83-23.58-9.31-34.93-14.86Q309,126.29,277.74,109.53c-6.27-3.36-11.82-8.2-17.38-12.76-4.45-3.64-9-7-14.35-9.1a7.32,7.32,0,0,0-4.4-.45C230,90.78,217.87,93.37,207,98.5c-14.24,6.69-26.08,16.73-30.6,33-2.43,8.78-1.61,17.42.38,26.15,2.92,12.79,7.9,24.83,13,36.84,2.11,5,4.48,9.9,6.71,14.85,4.42,9.83,5,20.06,3.52,30.6-3.56,24.69-16.61,44-34.08,60.9-18.42,17.81-36.88,35.59-55.19,53.51C99.65,365.14,90.09,377,83.3,391c-6.07,12.48-10.54,25.39-11.36,39.35-1,16.36,4.54,30.33,15.88,42.1,8.51,8.83,18.84,14.3,30.5,18,15.06,4.79,30.3,5.93,45.88,4.64,16.32-1.36,32.65-2.63,49-4.07,12.87-1.13,25.73-2.43,38.58-3.72q16.77-1.68,33.52-3.53c19.88-2.17,39.82-3.29,59.8-3.93,16.12-.51,32.2-1.84,48.31-2.67,12.34-.63,24.69-1,37-1.58,26.24-1.26,52.49-2.31,78.76-1.85,13.32.24,26.64.81,39.95,1.56,12.73.71,25.43,1.84,38.14,2.81q21.6,1.67,43.19,3.38c12.32,1,24.65,1.8,37,2.91,12,1.08,23.93,2.65,35.92,3.61,12.64,1,25.32,1.8,38,2.2,8.31.26,16.67-.17,25-.68,2.34-.15,4.74-1.44,6.86-2.65,3.42-2,5.36-4.85,4.93-9.12-.84-8.37-1.47-16.76-2.19-25.14-.5-5.84-1-11.67-1.53-17.5-.59-7.12-1.51-14.23-1.58-21.35a210.14,210.14,0,0,1,1.06-25.22c1.2-10.81,2.77-21.63,5-32.26,2.49-11.68,5.89-23.18,9-34.73,2.75-10.23,5.06-20.53,5.61-31.13.78-15-3.25-28.74-10.37-41.86a73.26,73.26,0,0,0-27.46-28.29,41.17,41.17,0,0,0-19.09-5.87c-11.4-.63-22.84-.7-34.15,1-7.5,1.1-14.95,2.68-22.31,4.49-28.38,7-57.07,12.39-85.81,17.56a240.8,240.8,0,0,1-24.59,2.76c-8.56.63-17.16,1.07-25.75,1-33.8-.26-63-12-87.09-35.85-9-8.92-15.18-19.75-20.77-31C421,143.89,411,111.74,403.78,78.65c-3.6-16.58-6.57-33.31-9.49-50-1.18-6.77-1.46-13.69-2.17-20.54a70,70,0,0,1-.55-7.79c.34.69.7,1.38,1,2.07C403.76,26.23,412.23,51.18,422,75.59c9.64,24,19.75,47.81,31.88,70.68,7.79,14.67,17.6,27.81,31.38,37.53a91,91,0,0,0,41.14,16.12,179.25,179.25,0,0,0,49.94-.58c20.56-3,41.09-6.26,61.54-9.94,15-2.71,29.87-6.51,44.89-9.37a228.34,228.34,0,0,1,25.28-3.23c9.35-.72,18.76-1.14,28.13-1A98.4,98.4,0,0,1,779,186.59c5.35,2.68,11.16,4.8,15.89,8.33,11.55,8.64,20.67,19.63,28.18,32A107.33,107.33,0,0,1,838.27,271c1.43,12.49-.09,24.72-2.95,36.93-4.12,17.6-8.1,35.25-11.51,53-1.68,8.79-2,17.85-2.87,26.8-2.11,21.19,3.06,41.36,8.36,61.59,3.92,15,7,30.18,10.38,45.31.62,2.78.71,5.68,1.05,8.52ZM284.51,45.21l-.94-.41a12.24,12.24,0,0,0-2.27,1c-1.7,1.21-3.31,2.53-5,3.81a5.63,5.63,0,0,0-1.42,6.92c2.18,4.21,5.19,5,9.59,3ZM275,60.43c-6.4-5-19.78-3-22.25,2.9,2.34,2.1,4.92,2.2,7.77,1.06a44.5,44.5,0,0,1,5.18-1.64C268.56,62,271.49,61.29,275,60.43Zm91.47,84.68c-7.93-5-15.66-8.65-24.78-9.08.37,1.21.77,2.62,1.64,3,5,2.31,10,4.57,15.21,6.42A9.92,9.92,0,0,0,366.43,145.11ZM289,57.49l.68.38c2.34-1.19,4.68-2.35,7-3.62a1.66,1.66,0,0,0,.67-1.3,27.53,27.53,0,0,0-.83-6.65,5.15,5.15,0,0,0-3.23-2.57c-1.59-.45-2.65.73-2.86,2.41Q289.7,51.81,289,57.49Zm24.82,65.58a18.82,18.82,0,0,1,2.61.79,5.32,5.32,0,0,1,2.3,1.51c1.24,1.8,3.06,1.51,4.75,1.55.3,0,1.1-1.49.89-1.84q-2.88-5-6.11-9.78c-.33-.47-1.41-.52-2.15-.57-.22,0-.61.64-.71,1C314.87,118.08,314.4,120.41,313.83,123.07ZM295.15,32.54c-1.88,0-3.69,1.41-3.2,3a5.6,5.6,0,0,0,2.88,3.18c1.49.6,3.51-1.43,3.56-3.05A3.24,3.24,0,0,0,295.15,32.54Zm87.41,121.38,2.92-3.22c-.63-.49-1.2-1.29-1.9-1.42-1.43-.26-3.19-.24-3.37,1.65C380.14,151.67,381.42,152.54,382.56,153.92Z" transform="translate(-0.91 -0.29)"/><path class="cls-1" d="M475,342.19c3.14-15.15,6.18-29.84,9.31-45-.4.55-.72,1-1.05,1.45q-14.81,19.44-29.66,38.84a4.11,4.11,0,0,1-2.83,1.59c-8.74-.26-17.47-.7-26.29-1.09L407.5,291.08h-.85c-3.27,14.83-6.54,29.66-9.91,45l-29.56-.79c3.59-30.35,11.92-59.52,19.51-89,4,.33,8.15.62,12.28,1,6,.56,11.94,1.32,17.93,1.74,1.92.13,2.6,1.05,3.29,2.52q10.76,22.68,21.58,45.32c.75,1.58,1.53,3.14,2.51,5.14,2.09-2.17,4-4.15,5.93-6.16a426.18,426.18,0,0,0,33.29-39.94,6.64,6.64,0,0,1,6-3.09c12.53.17,25.06.08,38,.08-1,3.92-2,7.57-3,11.22-4.8,17.68-9.85,35.3-14.3,53.07-1.92,7.66-2.67,15.61-3.79,23.45-.48,3.29-.28,3.3-3.71,3.11Z" transform="translate(-0.91 -0.29)"/><path class="cls-1" d="M579.67,252.66l36.79-4.85c15.15,19.42,26.91,41,43.48,59.73v-4.21c-.06-13.74-.07-27.48-.2-41.21-.06-6.67-.37-13.33-.46-20,0-.72.61-2,1.13-2.1,9.08-1.89,18.18-3.63,27.58-5.47,0,1.05.13,1.9.13,2.74q.07,53.88.18,107.75c0,2.25-.34,3.16-2.9,3.2-7.54.12-15.08.55-22.61.95a3.85,3.85,0,0,1-3.74-2c-7.49-11.1-14.95-22.21-22.6-33.19-2.31-3.32-5.17-6.25-7.78-9.36l-.54.34q5.57,23.12,11.15,46.28l-33.89-1.42c0-3.92.08-7.9,0-11.88-.49-21.83-5.94-42.39-15.53-62C586.17,268.52,583.15,260.7,579.67,252.66Z" transform="translate(-0.91 -0.29)"/><path class="cls-1" d="M219.34,354c-3.14,12-6.17,23.57-9.26,35.4H207.5c-8.52,0-17-.11-25.56,0-16.4.24-31.82,4.17-46,12.59a46.57,46.57,0,0,0-15.64,15.41c-5.11,8.09-1.27,22,7.85,26.77,4.58,2.39,9.82,3.75,14.91,4.87,9.69,2.14,19.48,1.49,29.15-.28,8.55-1.56,17-3.51,25.54-5.28.55-.11,1.11-.12,2.08-.21-1.42,9.09.11,17.7,3.55,26.08-4.61,2.88-9.68,4-14.69,5.24a134.27,134.27,0,0,1-44.08,3.87,142.63,142.63,0,0,1-25.29-4c-14.66-3.93-29.48-18.08-30.75-37.33-.7-10.53,0-20.78,4.26-30.42,7.05-16.07,18.57-27.83,34.89-34.79a160,160,0,0,1,38.07-10.43c16.35-2.57,32.8-4.6,49.21-6.87C216.27,354.45,217.53,354.25,219.34,354Z" transform="translate(-0.91 -0.29)"/><path class="cls-1" d="M707.79,428.77a34.68,34.68,0,0,0,.9,13.52c.16.54,1.49,1,2.27,1,7.22-.1,14.45-.28,21.67-.5,8.18-.25,16.36-.58,24.54-.86.88,0,1.75,0,2.61,0,.79,9.63,1.58,19.11,2.38,28.87-.51,0-1.34.11-2.17.11-17.68,0-35.37,0-53-.12a87.51,87.51,0,0,1-13-1c-4.53-.71-8-3.44-9-8a136.7,136.7,0,0,1-3.3-17.67c-1.25-11.48-1.59-23.07-3.13-34.51-2.15-16-5.33-31.84-11.21-47-.36-.93-.61-1.91-1-3.14,6.69,0,13-.05,19.37,0,9.06.08,18.13.45,27.19.28a160.46,160.46,0,0,0,49.94-8.9c.66-.23,1.35-.37,2.46-.67-.83,4.26-1.6,8.24-2.38,12.21-1.23,6.28-2.54,12.55-3.67,18.84-.31,1.68-1.26,2-2.62,2.15-6.08.53-12.15,1-18.22,1.58-11,1-21.9,1.92-32.84,3a2,2,0,0,0-1.22,1.51c.37,5.68.81,11.34,1.4,17a2.37,2.37,0,0,0,1.86,1.37c12.57-.9,25.13-1.92,37.69-2.9,3.92-.3,7.84-.54,11.73-.8.46,7.44.92,14.74,1.39,22.25Z" transform="translate(-0.91 -0.29)"/><path class="cls-1" d="M234,234.63c11.5-.24,22.6,1.35,32.94,6.68,8.51,4.39,15.77,9.92,19.33,19.46,2.38,6.38,1.39,12.41.07,18.65-3,14-10.81,24.71-22.26,32.8-8.9,6.28-17.83,12.72-27.42,17.81-17.13,9.09-34.93,17-54.5,19.14-10.9,1.18-21.94,1.19-32.93,1.52a8.83,8.83,0,0,1-8.6-6.8,3.16,3.16,0,0,1,.72-2.49c4.76-4.87,9.62-9.62,14.43-14.44,9-9,18.18-17.93,27-27.2,6.34-6.7,12-14,18.2-20.88,7.61-8.41,11.77-18.61,15.54-29,1.52-4.18,2.76-8.47,4.07-12.72.56-1.83,1.47-2.71,3.59-2.56C227.39,234.8,230.69,234.63,234,234.63Zm-33.59,76.7a34,34,0,0,0,4.81,1.31,22.51,22.51,0,0,0,11.32-1.56c7.29-3.07,14.59-6.11,21.83-9.29a45.41,45.41,0,0,0,15.82-11.53c5.84-6.58,9-14,7.32-22.94a9,9,0,0,0-4-6.06,26.62,26.62,0,0,0-18.09-4.32c-1.91.18-3.92.75-4.79,3-5.73,15.11-14.64,28.29-24.93,40.6C206.82,304,203.84,307.36,200.39,311.33Z" transform="translate(-0.91 -0.29)"/><path class="cls-1" d="M281.71,356.12c8.38,0,16.41-.24,24.42.08,5.07.21,6.27,2.45,5.1,7.42-4.23,18.12-8.5,36.23-14.63,53.82-5.58,16-13.67,30.54-26.2,42.34-7.95,7.47-17.42,11.05-28.12,12.12a68.56,68.56,0,0,1-19.35-1c-7.71-1.4-12.94-7.05-12.55-14.86A154.9,154.9,0,0,1,213,433.37c4.1-20.59,8.67-41.09,13-61.64,1.14-5.4,2.1-10.85,3-16.3.25-1.47.88-1.8,2.23-1.8,7.71,0,15.42-.11,23.14-.12,4.49,0,6.55,1.94,5.9,6.41-.69,4.81-2.1,9.52-3.24,14.27-3.52,14.68-7,29.37-10.63,44-1.2,4.88-2.78,9.66-4.07,14.51a21.06,21.06,0,0,0-.64,4.75c-.12,3.71,2,5.76,5.64,6.09,5.45.49,9.16-1.62,11.68-6.53,5-9.76,8-20.2,11.09-30.65,4.82-16.51,8.19-33.33,11.54-50.17C281.71,356.06,281.79,355.92,281.71,356.12Z" transform="translate(-0.91 -0.29)"/><path class="cls-1" d="M387.4,161c0,7.13.14,14.27,0,21.39-.16,6.34-.67,12.66-1,19-.51,9.54-1,19.07-1.46,28.6-.08,1.62-.88,1.8-2.17,1.76-5.38-.14-10.76-.25-16.14-.36a7.09,7.09,0,0,0-2.16,0c-4.61,1.39-6.69-1.58-9.27-4.66-9.23-11-18.8-21.74-28.24-32.56a1.1,1.1,0,0,0-.42-.26c-2.55,10.79-5,21.59-7.67,32.35-1.17,4.78-1.3,4.87-6.13,4.73-10.59-.31-21.18-.74-32.18-1.13a20.29,20.29,0,0,1,.86-3c2.87-6.17,5.4-12.55,8.77-18.43,7.13-12.45,9-25.66,7.36-39.7-1.18-10.22-2.6-20.37-6.76-29.87-1.69-3.85-3.94-7.47-6.2-11.7,4.3,1.14,8.51,1.78,12.34,3.36a224.63,224.63,0,0,1,23.68,10.92c3.61,2,6.32,5.8,9.1,9.07,10.24,12.06,20.34,24.24,30.5,36.37a13,13,0,0,0,1,.9c.88-10.16,1.73-20,2.62-30.17C371.57,160.28,379.17,163.24,387.4,161Z" transform="translate(-0.91 -0.29)"/><path class="cls-1" d="M701.16,232.82c8.74-1.75,17.54-3.6,26.59-3,17,1.13,30.49,8.15,39.48,23.19,4.95,8.27,9.16,16.72,10.55,26.33,2.62,18.07-1.37,34.43-13.26,48.47A97,97,0,0,1,753,338.66c-6.88,5.82-15.4,7.36-24,8.08-9.11.77-18.27.87-27.41,1.25a10.81,10.81,0,0,1-1.38-.16C700.55,309.46,700.85,271.22,701.16,232.82Zm22,25.85c.3,19.63.59,38.92.89,58.6a68.19,68.19,0,0,0,8.31-.82c10.2-2.29,17.71-7.39,20.51-18.36,3.06-12,1.11-22.49-7-31.78C739.81,259.46,731.73,258.72,723.13,258.67Z" transform="translate(-0.91 -0.29)"/><path class="cls-1" d="M287.84,171.44c0,19.85-5.65,33.79-16,45.81C267,223,261,227.47,253.06,228.36c-16.27,1.81-29.93-3.77-38.06-18.07a104.61,104.61,0,0,1-12.46-37.36c-1.43-10.09-1.77-20.2.56-30.16,2.89-12.34,9.36-22.26,21.67-26.93,8.78-3.33,17.72-2.13,26.25,1.46,9.67,4.08,18.07,10.28,23.86,18.89C282.72,147.87,288.2,160.7,287.84,171.44Zm-61.79-8.17a49.31,49.31,0,0,0,4,19.35c1.64,4,3.48,7.94,6.87,10.88,6.57,5.7,17.46,6,22.54-3.41,3.42-6.38,5.1-13.16,3.46-20.18a89.66,89.66,0,0,0-5.6-15.52c-2.74-6.22-8-9.64-14.44-11.35a9.75,9.75,0,0,0-11,3.9C228.07,152.16,225.73,157.85,226.05,163.27Z" transform="translate(-0.91 -0.29)"/><path class="cls-1" d="M643.32,426.76c4.42,6.92,9.13,13.49,15,19.16,6.68,6.5,13.5,12.84,20.22,19.29,1.21,1.16,2.25,2.48,3.78,4.19-2.88-.17-5.29-.25-7.69-.45-9.1-.77-18.21-1.55-27.3-2.41a3.46,3.46,0,0,1-2.11-1.23c-6.87-8.79-13.63-17.66-20.53-26.42-2.11-2.68-4.54-5.09-6.83-7.63l-.63.21v35.14H587.47c1.08-3,2.5-5.4,2.82-8,1.22-9.52,2.49-19.07,3-28.64.59-11.86.3-23.76.58-35.64.24-10.41.74-20.82,1.12-31.35,3-.17,6.15-.54,9.25-.49q13.85.21,27.68.73a72.33,72.33,0,0,1,10.49,1.11C655,366.7,664.15,377.17,664.2,390a127.53,127.53,0,0,1-1.57,18.59c-1,6.88-5.34,11.5-11.34,14.61C648.75,424.47,646.08,425.52,643.32,426.76Zm-26-18.17c4.76-.5,9.24-.64,13.59-1.5,5.76-1.14,9-5.63,9.21-11.59a7.68,7.68,0,0,0-2.89-6.75c-5.94-4.87-12.73-5.14-19.91-4.1Z" transform="translate(-0.91 -0.29)"/><path class="cls-1" d="M500.66,361.45c7.86,0,15.41-.05,22.95,0,2.29,0,3.57,1.86,3.59,4.82,0,5.54,0,11.09,0,16.63.07,8.83.13,17.65.29,26.48.12,6.15.38,12.31.64,18.46a17,17,0,0,0,.64,3.52c1,3.95,4,6.15,8.7,6.5,4,.29,7.22-1.44,8.49-5.31a51.21,51.21,0,0,0,2.79-12.35c.55-9.05.44-18.13.65-27.2.24-9.94.54-19.88.81-30,2.55-.24,4.92-.58,7.3-.65,4-.1,8,0,12.05,0,4.6,0,6.42,1.77,6.36,6.44-.09,6.82-.39,13.64-.43,20.46-.08,12.52,0,25,0,37.56,0,7.29.25,14.65-2,21.7s-6.55,12.58-14,14.68a33.11,33.11,0,0,1-8.11.72c-11.57.29-23.17.52-34.61-1.38-6.9-1.14-12.64-4.69-14.79-11.8-1.07-3.53-1.16-7.44-1.21-11.18-.16-11.57-.05-23.14-.12-34.71-.09-12.53-.28-25.05-.38-37.58C500.23,365.4,500.5,363.49,500.66,361.45Z" transform="translate(-0.91 -0.29)"/><path class="cls-1" d="M354,335.25l-98.69,3.07a14.76,14.76,0,0,1,6.14-8.2c5.58-3.9,11.13-7.85,16.75-11.69,11.18-7.63,16-19.08,18.79-31.63a151.32,151.32,0,0,0,2.71-18.74,27.66,27.66,0,0,0-2.89-15.13c-1.59-3.13-3.34-6.17-5.35-9.85,2.89.46,5.18.92,7.49,1.17a77.73,77.73,0,0,0,7.91.59c7.15.08,14.3-.11,21.45,0,14.76.35,29.52.86,44.28,1.31a7.14,7.14,0,0,1,1.15.23c-1.21,6.58-2.51,13.07-3.56,19.61-.36,2.3-.85,3.15-3.54,2.9a167.93,167.93,0,0,0-20.9-.93c-7.91.29-15.79,1.44-23.68,2.31a2.22,2.22,0,0,0-1.52,1.4c-.57,2.9-.93,5.84-1.42,9.08h45.07c-.74,3.64-1.43,7-2.09,10.3-.48,2.42-1,4.85-1.36,7.28-.21,1.36-.74,1.9-2.2,1.81-5.76-.37-11.54-.95-17.3-.83-7.85.15-15.68.87-23.52,1.33a3.07,3.07,0,0,0-3.24,2.54c-.61,2.47-1.56,4.85-2.53,7.77h46.64C357,319.4,355.55,327.29,354,335.25Z" transform="translate(-0.91 -0.29)"/><path class="cls-1" d="M364.49,354.58c-9.63,28.37-19.75,55.75-28.78,84,4.37-.39,8.14-.48,11.82-1.1,9.62-1.63,19.24-3.29,28.77-5.35,3.94-.86,7.56-3.1,11.47-4.17,6.42-1.75,10.11.75,10.5,7.36a43.17,43.17,0,0,1-1.21,11.34c-1.12,5.21-2.73,10.32-4.24,15.87l-15.68.6q-30.43,1.21-60.88,2.42c-6.65.27-13.31.55-19.95.91-3.82.2-6.18-2.33-5.09-6.05a22.4,22.4,0,0,1,3.16-6.68,142.44,142.44,0,0,0,20.3-41.4c3.34-10.8,6.7-21.55,8.72-32.68.69-3.86,1.18-7.76,1.56-11.66.82-8.37,3.23-11.44,11.55-12.2C345.6,355,354.76,355,364.49,354.58Z" transform="translate(-0.91 -0.29)"/><path class="cls-1" d="M490.42,360.39A43.7,43.7,0,0,1,488,379c-1.86,5-5.18,6.31-10.17,4.37-4.09-1.59-8.08-3.62-12.31-4.56-2.91-.65-6.17.15-9.25.5a2.41,2.41,0,0,0-1.41,1.76q-1.06,13.08-1.94,26.16c-.37,5.68-1.19,11.42-.76,17.05.61,7.95,2.27,15.83,3.35,23.75a70.34,70.34,0,0,1,.72,9.83c0,4.47-3.08,7.24-7.54,7.25q-13,0-26.05,0c-5.59,0-7.85-2.66-6.56-8.09,2.26-9.54,5-19,7.05-28.57a142.46,142.46,0,0,0,2.77-45.21c-.51-4.79-1.13-5.39-5.88-6.39-6.32-1.32-12.19,0-18,2.57a15.61,15.61,0,0,1-7.36,1.41c-3.57-.33-5.35-3.06-5.7-8-.38-5.47.05-10.92,2.47-16a3.09,3.09,0,0,1,2.27-1.46c11.73-.09,23.49-.47,35.2,0,13.69.6,27.35,2,41,3.06C476.7,359,483.47,359.73,490.42,360.39Z" transform="translate(-0.91 -0.29)"/><path class="cls-1" d="M542.71,346.59H517.89c.79-5.24,1.27-10.5,2.41-15.61,3.67-16.48,9.19-32.4,14.92-48.26,3.09-8.58,5.91-17.26,8.74-25.93a2.52,2.52,0,0,1,2.84-2.11c5.54,0,11.08-.2,16.61-.42a2.71,2.71,0,0,1,3,1.79c11.32,23.87,22.48,47.81,28.06,73.84,1.21,5.62,1.88,11.36,2.75,17.05a17.68,17.68,0,0,1,0,2.55L576.8,347.8c-1.1-3-2.13-5.88-3.17-8.72-1.61-4.35-5.16-6.48-9.37-6.91a68.44,68.44,0,0,0-14.38,0c-5.29.57-7.54,5.75-7.51,11.8A24.19,24.19,0,0,0,542.71,346.59Z" transform="translate(-0.91 -0.29)"/><path class="cls-1" d="M398.66,207.13c.3-5.08.58-9.86.88-15,2.74.17,5.58.29,8.41.53,6.86.59,13.71,1.21,20.57,1.9a2.45,2.45,0,0,1,1.74,1.09c1.89,4.2,3.65,8.45,5.55,12.92Z" transform="translate(-0.91 -0.29)"/></svg>