<svg id="Layer_1" data-name="Layer 1" xmlns="http://www.w3.org/2000/svg" viewBox="0 0 299 73"><defs><style>.cls-1{isolation:isolate;}.cls-2{fill:#fff;}</style></defs><g id="Button_-_Shape" data-name="Button - Shape"><rect width="299" height="73" rx="20"/></g><g id="Facebook_Page" data-name="Facebook Page" class="cls-1"><g class="cls-1"><path class="cls-2" d="M223.23,224.13c0-5.22,4-9,9.37-9a8.85,8.85,0,0,1,6.92,2.93l-2.1,2a6.15,6.15,0,0,0-4.67-2.05,6.15,6.15,0,1,0,0,12.3,6.08,6.08,0,0,0,4.67-2.08l2.1,2a8.87,8.87,0,0,1-7,2.93C227.23,233.13,223.23,229.35,223.23,224.13Z" transform="translate(-196.22 -188.55)"/><path class="cls-2" d="M240.75,226.2c0-4,3-6.82,7.1-6.82s7.12,2.83,7.12,6.82-3,6.85-7.12,6.85A6.74,6.74,0,0,1,240.75,226.2Zm11.07,0a4,4,0,1,0-4,4.18A3.89,3.89,0,0,0,251.82,226.2Z" transform="translate(-196.22 -188.55)"/><path class="cls-2" d="M271.12,225.23v7.65H268v-7.25c0-2.37-1.18-3.52-3.18-3.52-2.22,0-3.72,1.35-3.72,4v6.75H258V219.53h3v1.73a5.78,5.78,0,0,1,4.6-1.88C268.75,219.38,271.12,221.21,271.12,225.23Z" transform="translate(-196.22 -188.55)"/><path class="cls-2" d="M283.12,232.15a4.9,4.9,0,0,1-3,.9c-2.92,0-4.59-1.55-4.59-4.5v-6.42h-2.2v-2.5h2.2v-3h3.12v3h3.57v2.5h-3.57v6.35c0,1.3.65,2,1.85,2a2.85,2.85,0,0,0,1.75-.55Z" transform="translate(-196.22 -188.55)"/><path class="cls-2" d="M285.28,215.46a1.91,1.91,0,0,1,2-1.88,1.85,1.85,0,0,1,2,1.8,2,2,0,0,1-4,.08Zm.42,4.07h3.13v13.35H285.7Z" transform="translate(-196.22 -188.55)"/><path class="cls-2" d="M306.07,225.23v7.65H303v-7.25c0-2.37-1.18-3.52-3.18-3.52-2.22,0-3.72,1.35-3.72,4v6.75h-3.12V219.53h3v1.73a5.78,5.78,0,0,1,4.6-1.88C303.7,219.38,306.07,221.21,306.07,225.23Z" transform="translate(-196.22 -188.55)"/><path class="cls-2" d="M323,219.53v13.35h-3v-1.7a5.47,5.47,0,0,1-4.3,1.87c-3.43,0-5.75-1.87-5.75-5.9v-7.62h3.12v7.2c0,2.42,1.15,3.57,3.13,3.57,2.17,0,3.65-1.35,3.65-4v-6.75Z" transform="translate(-196.22 -188.55)"/><path class="cls-2" d="M339.57,227.2H329.1c.37,2,2,3.2,4.32,3.2a4.78,4.78,0,0,0,3.63-1.45l1.67,1.93a6.77,6.77,0,0,1-5.37,2.17c-4.47,0-7.37-2.87-7.37-6.85a6.63,6.63,0,0,1,6.89-6.82,6.51,6.51,0,0,1,6.75,6.9C339.62,226.53,339.6,226.9,339.57,227.2Zm-10.5-2.07h7.58a3.64,3.64,0,0,0-3.78-3.25A3.7,3.7,0,0,0,329.07,225.13Z" transform="translate(-196.22 -188.55)"/><path class="cls-2" d="M357.55,232.15a4.92,4.92,0,0,1-3,.9c-2.93,0-4.6-1.55-4.6-4.5v-6.42h-2.2v-2.5H350v-3h3.12v3h3.58v2.5h-3.58v6.35c0,1.3.65,2,1.85,2a2.83,2.83,0,0,0,1.75-.55Z" transform="translate(-196.22 -188.55)"/><path class="cls-2" d="M358.57,226.2c0-4,3-6.82,7.1-6.82s7.13,2.83,7.13,6.82-3,6.85-7.13,6.85A6.74,6.74,0,0,1,358.57,226.2Zm11.08,0a4,4,0,1,0-4,4.18A3.89,3.89,0,0,0,369.65,226.2Z" transform="translate(-196.22 -188.55)"/><path class="cls-2" d="M381.52,231l1.13-2.53a9.65,9.65,0,0,0,5.77,1.93c2.73,0,3.88-1,3.88-2.28,0-3.77-10.4-1.3-10.4-7.79,0-2.83,2.25-5.23,7.05-5.23a11,11,0,0,1,5.82,1.55l-1,2.53a9.7,9.7,0,0,0-4.83-1.38c-2.7,0-3.8,1-3.8,2.38,0,3.72,10.38,1.3,10.38,7.72,0,2.8-2.28,5.2-7.08,5.2A11.29,11.29,0,0,1,381.52,231Z" transform="translate(-196.22 -188.55)"/><path class="cls-2" d="M398,215.46a1.91,1.91,0,0,1,2-1.88,1.86,1.86,0,0,1,2,1.8,1.92,1.92,0,0,1-2,2A1.9,1.9,0,0,1,398,215.46Zm.42,4.07h3.13v13.35h-3.13Z" transform="translate(-196.22 -188.55)"/><path class="cls-2" d="M413.67,232.15a4.9,4.9,0,0,1-3,.9c-2.92,0-4.6-1.55-4.6-4.5v-6.42h-2.2v-2.5h2.2v-3h3.13v3h3.57v2.5H409.2v6.35c0,1.3.65,2,1.85,2a2.85,2.85,0,0,0,1.75-.55Z" transform="translate(-196.22 -188.55)"/><path class="cls-2" d="M428.3,227.2H417.82c.38,2,2,3.2,4.33,3.2a4.75,4.75,0,0,0,3.62-1.45l1.68,1.93a6.79,6.79,0,0,1-5.38,2.17c-4.47,0-7.37-2.87-7.37-6.85a6.64,6.64,0,0,1,6.9-6.82,6.51,6.51,0,0,1,6.75,6.9C428.35,226.53,428.32,226.9,428.3,227.2Zm-10.5-2.07h7.57a3.63,3.63,0,0,0-3.77-3.25A3.69,3.69,0,0,0,417.8,225.13Z" transform="translate(-196.22 -188.55)"/></g></g><g id="Arrow"><polygon class="cls-2" points="258.69 54.44 255.16 50.9 269.56 36.5 255.16 22.1 258.69 18.56 276.63 36.5 258.69 54.44"/></g></svg>